<svg t="1629111220438" class="icon" viewBox="0 0 1024 1024" version="1.1" xmlns="http://www.w3.org/2000/svg" p-id="858" width="24" height="24"><path d="M425.813333 15.36c-26.453333 0-48.64 21.333333-48.64 48.64v62.293333c-50.346667 11.946667-101.546667 30.72-152.746666 56.32-58.026667 29.013333-115.2 67.413333-165.546667 110.08-19.626667 17.066667-22.186667 46.08-5.12 65.706667s46.08 22.186667 65.706667 5.12c78.506667-67.413333 169.813333-116.906667 257.706666-140.8v107.52C316.586667 349.866667 256.853333 384 199.68 430.933333 136.533333 482.986667 76.8 551.253333 23.04 634.026667c-5.12 7.68-7.68 17.066667-7.68 25.6 0 15.36 7.68 29.866667 21.333333 39.253333 21.333333 13.653333 50.346667 7.68 64.853334-13.653333 48.64-74.24 101.546667-135.68 158.72-182.613334 58.026667-47.786667 122.026667-80.213333 177.493333-92.16 24.746667-5.12 36.693333-28.16 36.693333-44.373333V341.333333 63.146667c-0.853333-26.453333-22.186667-47.786667-48.64-47.786667zM557.226667 63.146667v302.08c0 16.213333 11.093333 39.253333 36.693333 44.373333 56.32 11.946667 120.32 44.373333 177.493333 92.16 56.32 46.933333 110.08 108.373333 158.72 182.613333 13.653333 21.333333 42.666667 28.16 64.853334 13.653334 13.653333-8.533333 21.333333-23.893333 21.333333-39.253334 0-8.533333-2.56-17.92-7.68-25.6-53.76-82.773333-113.493333-151.04-177.493333-203.946666-57.173333-46.933333-116.053333-80.213333-177.493334-100.693334V222.72c87.893333 23.893333 179.2 74.24 257.706667 140.8 19.626667 17.066667 48.64 14.506667 65.706667-5.12s14.506667-48.64-5.12-65.706667c-50.346667-42.666667-107.52-81.066667-165.546667-110.08-51.2-25.6-102.4-44.373333-152.746667-56.32V63.146667c0-26.453333-21.333333-48.64-48.64-48.64-26.453333 0.853333-47.786667 22.186667-47.786666 48.64zM895.146667 837.973333c-20.48-46.933333-43.52-91.306667-68.266667-129.706666-26.453333-40.96-55.466667-75.946667-86.186667-104.96-33.28-31.573333-68.266667-55.466667-104.106666-72.533334-23.893333-11.093333-48.64-18.773333-73.386667-23.04v-28.16c0-26.453333-21.333333-48.64-48.64-48.64-26.453333 0-48.64 21.333333-48.64 48.64v28.16c-24.746667 4.266667-49.493333 11.946667-73.386667 23.04-35.84 17.066667-70.826667 40.96-104.106666 72.533334-30.72 29.013333-59.733333 64.853333-86.186667 104.96-24.746667 38.4-48.64 81.92-68.266667 129.706666-10.24 23.893333 0.853333 51.2 24.746667 61.44 23.893333 10.24 51.2-0.853333 61.44-24.746666 36.693333-85.333333 82.773333-156.16 133.12-203.946667 36.693333-34.986667 74.24-57.173333 112.64-67.413333v75.946666c0 26.453333-19.626667 36.693333-28.16 41.813334-2.56 1.706667-9.386667 5.12-11.946667 6.826666-17.92 11.946667-38.4 29.866667-58.026666 54.613334-34.986667 44.373333-61.44 104.96-75.946667 170.666666-5.12 25.6 10.24 50.346667 35.84 55.466667 25.6 5.12 50.346667-10.24 55.466667-35.84 11.093333-52.053333 32.426667-99.84 58.88-133.12 13.653333-17.066667 40.96-46.08 72.533333-46.08s58.88 29.013333 72.533333 46.08c26.453333 34.133333 46.933333 81.066667 58.88 133.12 5.12 25.6 30.72 40.96 55.466667 35.84 25.6-5.12 40.96-30.72 35.84-55.466667-14.506667-65.706667-40.96-126.293333-75.946667-170.666666-19.626667-24.746667-40.106667-42.666667-58.026666-54.613334-2.56-1.706667-9.386667-5.12-11.946667-6.826666-8.533333-5.12-28.16-15.36-28.16-41.813334v-75.946666c38.4 10.24 76.8 32.426667 112.64 67.413333 50.346667 47.786667 96.426667 118.613333 133.12 203.946667 10.24 23.893333 37.546667 34.986667 61.44 24.746666 23.893333-10.24 34.986667-37.546667 24.746667-61.44z" fill="#8b0012" p-id="859"></path></svg>